<svg id="desk" xmlns="http://www.w3.org/2000/svg" xmlns:xlink="http://www.w3.org/1999/xlink" viewBox="0 0 897.38 691.94"><defs><style>.cls-1{fill:#b2b2b2;}.cls-1,.cls-2,.cls-6,.cls-7,.cls-8{stroke:#000;stroke-miterlimit:10;}.cls-1,.cls-2{stroke-width:9px;}.cls-2{fill:url(#radial-gradient);}.cls-3{opacity:0.45;}.cls-4{fill:#fff;}.cls-5{opacity:0.39;}.cls-6{fill:#1d4799;stroke-width:6px;}.cls-7{fill:#84502c;stroke-width:7px;}.cls-8{stroke-width:5px;fill:url(#linear-gradient);}</style><radialGradient id="radial-gradient" cx="508.89" cy="1152.32" r="96.83" gradientTransform="translate(-337.35 -603.39) rotate(-18.4) scale(1 0.76)" gradientUnits="userSpaceOnUse"><stop offset="0.01" stop-color="#00d9ff" stop-opacity="0"/><stop offset="0.55" stop-color="#44afff" stop-opacity="0.56"/><stop offset="1" stop-color="#1477ff" stop-opacity="0.7"/></radialGradient><linearGradient id="linear-gradient" x1="447.86" y1="308.29" x2="447.86" y2="364.15" gradientUnits="userSpaceOnUse"><stop offset="0" stop-color="#572915"/><stop offset="0.16" stop-color="#3c1c0f" stop-opacity="0.69"/><stop offset="0.36" stop-color="#221008" stop-opacity="0.39"/><stop offset="0.56" stop-color="#0f0704" stop-opacity="0.17"/><stop offset="0.77" stop-color="#040201" stop-opacity="0.04"/><stop offset="1" stop-opacity="0"/></linearGradient></defs><title>desk_ball</title><g id="Ball"><circle class="cls-1" cx="445.38" cy="132.58" r="128.08"/><circle class="cls-2" cx="445.38" cy="132.58" r="128.08"/><g class="cls-3"><path class="cls-4" d="M641.53,1213.44l0.21,2,0.22,2.35,0.13,1.49,0,1.7,0.1,4c0,1.45-.11,3-0.18,4.71s-0.3,3.47-.46,5.36c-0.07,1-.23,1.91-0.38,2.89l-0.48,3c-0.35,2.06-.88,4.17-1.36,6.38l-0.92,3.32c-0.31,1.13-.63,2.27-1,3.4l-1.18,3.47c-0.43,1.16-.92,2.31-1.38,3.49s-0.95,2.37-1.52,3.53l-1.67,3.55c-1.25,2.32-2.46,4.73-3.92,7-0.72,1.15-1.38,2.36-2.18,3.48l-2.35,3.42a103.66,103.66,0,0,1-23.73,23.74l-3.41,2.36c-1.12.8-2.33,1.46-3.48,2.18-2.29,1.46-4.69,2.68-7,3.92l-3.55,1.67c-0.59.27-1.16,0.56-1.75,0.81l-1.77.71c-1.18.47-2.33,1-3.49,1.38l-3.47,1.19c-1.13.4-2.28,0.73-3.4,1l-3.32.92c-2.21.48-4.33,1-6.39,1.35l-3,.48c-1,.16-1.94.32-2.89,0.38-1.9.16-3.67,0.39-5.36,0.45s-3.26.16-4.71,0.18l-4-.1-1.7,0c-0.53,0-1-.09-1.5-0.13l-2.36-.22-2-.21,1.95-.31c1.27-.21,3.12-0.41,5.45-0.86l3.85-.71c1.39-.34,2.89-0.64,4.48-1,3.18-.76,6.72-1.75,10.52-3,1.9-.61,3.84-1.34,5.85-2.05l3-1.22c1-.4,2.06-0.82,3.08-1.31l3.13-1.41c1-.49,2.08-1,3.14-1.58,2.13-1,4.21-2.28,6.36-3.45a140.75,140.75,0,0,0,12.51-8.45,120.68,120.68,0,0,0,21.95-21.94,140.38,140.38,0,0,0,8.45-12.51c1.17-2.15,2.43-4.23,3.46-6.36,0.53-1.06,1.08-2.1,1.58-3.14l1.42-3.13c0.49-1,.91-2.06,1.31-3.08l1.22-3c0.71-2,1.44-4,2.05-5.85,1.21-3.8,2.2-7.34,3-10.52,0.35-1.6.65-3.1,1-4.48l0.7-3.83c0.46-2.32.65-4.21,0.86-5.47Z" transform="translate(-85.66 -1081.53)"/></g><g class="cls-3"><path class="cls-4" d="M593.2,1137.93l1.39,0.88,1.65,1.08,1,0.69,1.14,0.86,2.66,2,3,2.59c1.07,0.93,2.09,2,3.23,3.13s2.19,2.4,3.38,3.69,2.23,2.78,3.41,4.26l1.66,2.36c0.56,0.8,1.13,1.62,1.65,2.48l1.61,2.61c0.52,0.89,1,1.83,1.52,2.76,1.07,1.84,1.9,3.85,2.86,5.84s1.73,4.11,2.42,6.29,1.39,4.37,2,6.62a85.28,85.28,0,0,1,2.44,28l-0.34,3.46c-0.1,1.15-.33,2.28-0.49,3.4-0.31,2.26-.83,4.45-1.3,6.61a86,86,0,0,1-4,12.08c-0.36.94-.78,1.84-1.2,2.73l-1.22,2.61c-0.91,1.66-1.73,3.29-2.63,4.79s-1.76,2.93-2.69,4.22-1.75,2.54-2.64,3.64l-2.48,3.06-2.26,2.46-1,1-0.91.87-1.44,1.35-1.21,1.11,0.81-1.43c0.52-.93,1.36-2.24,2.27-4l1.55-2.86,1.69-3.42c1.17-2.45,2.4-5.24,3.6-8.32,0.6-1.54,1.15-3.17,1.75-4.83s1.14-3.41,1.58-5.24l0.74-2.74c0.24-.93.43-1.88,0.65-2.84,0.46-1.9.77-3.88,1.15-5.87a121.06,121.06,0,0,0,1.24-12.4,102.51,102.51,0,0,0-2.21-25.51,120.66,120.66,0,0,0-3.35-12,112.07,112.07,0,0,0-4.47-10.84c-0.75-1.72-1.69-3.29-2.46-4.89s-1.71-3-2.56-4.45c-1.71-2.82-3.41-5.35-5-7.57l-2.26-3.08-2-2.54c-1.19-1.57-2.27-2.73-2.95-3.56Z" transform="translate(-85.66 -1081.53)"/></g><g class="cls-5"><path class="cls-4" d="M429.83,1246l-0.79-1.5c-0.52-1-1.2-2.43-2-4.35a73,73,0,0,1-2.47-7,79.28,79.28,0,0,1-2.18-9.5,84.53,84.53,0,0,1-1.13-11.55,90.93,90.93,0,0,1,.52-13c0.12-1.13.26-2.26,0.44-3.4l0.13-.86,0.06-.43,0-.21,0-.11V1194l0.05-.24,0.31-1.62c0.46-2.19.77-4.25,1.5-6.7s1.29-4.8,2.14-7l1.21-3.43,1.41-3.36c0.49-1.11.94-2.24,1.49-3.33l1.65-3.25c1.05-2.19,2.38-4.22,3.59-6.28s2.66-4,4-5.89,2.88-3.66,4.31-5.42,3-3.35,4.56-4.89,3.1-3,4.68-4.34,3.13-2.62,4.69-3.78,3.11-2.22,4.6-3.21,3-1.83,4.42-2.64,2.82-1.47,4.11-2.11l1.89-.91c0.62-.27,1.23-0.51,1.81-0.74,1.16-.46,2.22-0.89,3.19-1.24,1.95-.69,3.53-1.1,4.59-1.4l1.64-.42-1.22,1.19c-0.79.77-2,1.83-3.44,3.21-0.71.72-1.51,1.48-2.38,2.32q-0.64.63-1.35,1.28l-1.39,1.45c-0.94,1-2,2-3,3.12s-2.11,2.3-3.23,3.52l-3.35,3.91c-1.13,1.37-2.25,2.81-3.42,4.26s-2.24,3.05-3.42,4.59l-3.37,4.9c-1,1.72-2.18,3.42-3.24,5.19l-1.55,2.7c-0.53.9-1.07,1.79-1.53,2.73-1,1.87-2,3.69-2.89,5.63l-1.38,2.87c-0.47,1-.84,2-1.27,2.93l-1.27,2.93-1.13,3-0.57,1.48c-0.21.49-.39,1-0.54,1.47l-1,2.89-0.51,1.44c-0.18.46-.31,1.05-0.47,1.57l-0.94,3.19-0.48,1.58a1.38,1.38,0,1,1,0-.14v0l0,0.09,0,0.19-0.1.37-0.19.74c-0.27,1-.53,2-0.76,3a161.82,161.82,0,0,0-3.83,22c-0.34,3.3-.6,6.37-0.74,9.11s-0.23,5.17-.31,7.18l-0.09,4.71Z" transform="translate(-85.66 -1081.53)"/></g><path class="cls-6" d="M471.74,1348.35s108.88-59.9,182.5-46.7c30.21,5.42,15.21,46.7,15.21,46.7H471.74Z" transform="translate(-85.66 -1081.53)"/><path class="cls-6" d="M555.08,1331c-38.26-16.53-99.42-37.76-146.3-29.35-30.21,5.42-15.21,46.7-15.21,46.7H591.29" transform="translate(-85.66 -1081.53)"/></g><g id="counter"><rect class="cls-7" x="3.5" y="266.82" width="890.38" height="421.62"/><polyline class="cls-8" points="3.39 358.15 3.39 315.43 892.34 315.43 892.34 358.15"/></g></svg>