<svg id="Layer_1" data-name="Layer 1" xmlns="http://www.w3.org/2000/svg" viewBox="0 0 479.76 50.2"><defs><style>.cls-1{fill:#15aaaa;}.cls-2{fill:#0e7771;}</style></defs><title>objects_found</title><path class="cls-1" d="M393.33,74.78l-1.55,8.34L370,84l-13-1.48,1.11-43.79,31.75-.52ZM379.3,71l-1-19.71-8.2-.44-0.37,20.53Z" transform="translate(-355.98 -36.08)"/><path class="cls-2" d="M370,85l-14-1.59,1.16-45.66,33.63-.55,3.57,37.61-1.72,9.27ZM358,81.64L370,83l20.91-.85,1.38-7.42L389,39.24l-29.87.49Zm10.73-9.22,0.41-22.62,10.13,0.55L380.35,72Zm2.37-20.51-0.33,18.43,7.46-.29-0.87-17.81Z" transform="translate(-355.98 -36.08)"/><path class="cls-1" d="M437.19,69.76v0.59l-8.56,14L400,84.3l-0.81-44.75,0.37-.44L417.47,38,428,38.15l6.5,11V49.6L428.92,60.3ZM419.1,48.86l-6.57-.07v7.9l6.72-.22Zm1.55,17h-7.46V74.7l7.61-.44Z" transform="translate(-355.98 -36.08)"/><path class="cls-2" d="M429.18,85.38l-30.12-.08-0.84-46.1,0.88-1.06L417.41,37l11.12,0.15,6.92,11.72v1l-5.34,10.32,8.07,9.22v1.25ZM401,83.3l27,0.07,8.1-13.27-8.45-9.65,5.72-11.06-6.05-10.25L417.46,39l-17.21,1.07Zm11.16-7.54V64.84h9.44l0.18,10.36Zm2-8.92v6.8l5.59-.32-0.11-6.48h-5.48Zm-2.66-9.12V47.77l8.55,0.1,0.19,9.56Zm2-7.92v5.86l4.7-.15-0.11-5.65Z" transform="translate(-355.98 -36.08)"/><path class="cls-1" d="M466,38.3l1.7,38.1L457.49,85,438,83.49l1.18-13,13.88,0.89L453,51.15l-12.48.52-0.22-12.92Z" transform="translate(-355.98 -36.08)"/><path class="cls-2" d="M457.83,86l-20.91-1.58,1.36-15,13.79,0.88L452,52.19l-12.46.52-0.26-14.94,27.67-.48,1.76,39.56Zm-18.74-3.42,18.07,1.37,9.5-8L465,39.32l-23.72.41,0.19,10.9L454,50.11l0.08,22.34-14-.89Z" transform="translate(-355.98 -36.08)"/><path class="cls-1" d="M502.68,84.08l-29.09-.22,0.29-43.42,2.81-1.92L501.8,38l-0.3,11.74-14,.07-0.15,5.91,10.56-.07-0.15,10.85-11.08-.15,0.07,6.2,16.39-.44Z" transform="translate(-355.98 -36.08)"/><path class="cls-2" d="M503.65,85.09l-31.06-.24,0.31-44.94,3.48-2.38L502.82,37l-0.35,13.76-14,.07-0.1,3.91,10.55-.07-0.18,12.88-11-.15,0,4.16,16.44-.44Zm-29-2.22,27.12,0.21,0.37-9.93-16.34.44-0.1-8.24,11.1,0.15,0.12-8.83-10.57.07,0.2-7.91,14-.07L500.77,39,477,39.52,474.88,41Z" transform="translate(-355.98 -36.08)"/><path class="cls-1" d="M537.83,70.86V84.6l-29-1.48L508.59,39.7l27-2.07,0.52,12.63-13.36.22L522.1,71.75Z" transform="translate(-355.98 -36.08)"/><path class="cls-2" d="M538.83,85.65l-31-1.58-0.23-45.29,29-2.22,0.6,14.69-13.44.22-0.6,19.22,15.69-.88V85.65Zm-29-3.48,27,1.38V71.92l-15.76.89L521.8,49.5l13.29-.22-0.43-10.57-25.06,1.92Z" transform="translate(-355.98 -36.08)"/><path class="cls-1" d="M575.34,50.93l-11.67-.15,1.55,32.71-14.47.66,0.15-33.08-10.63.37-0.15-12.92,34.63-.74Z" transform="translate(-355.98 -36.08)"/><path class="cls-2" d="M549.74,85.2l0.15-33.09-10.62.37-0.17-14.93,36.6-.78,0.68,15.18-11.66-.15,1.55,32.65ZM551.9,50l-0.15,33.07,12.42-.57-1.55-32.77,11.67,0.15-0.5-11.11-32.66.7,0.12,10.91Z" transform="translate(-355.98 -36.08)"/><path class="cls-1" d="M607.38,37.86l-0.07,12.33L594,50.26l-0.52,3.17,15.06,6.87-1.18,22.22-28,2.66-1.33-14.77,16.1,0.89,0.22-4.21L578.73,58l1.33-18.39,11.89-1.25Z" transform="translate(-355.98 -36.08)"/><path class="cls-2" d="M578.49,86.28L577,69.36l16.25,0.89,0.14-2.6-15.67-9.09,1.43-19.84,12.72-1.34,16.54-.56L608.3,51.18l-13.43.07-0.26,1.59,15,6.83-1.26,23.77Zm0.68-14.8L580.3,84.1l26.13-2.48,1.1-20.68L592.39,54l0.78-4.76,13.15-.07,0.06-10.3L592,39.37l-11,1.16-1.22,16.93,15.64,9.08-0.31,5.82Z" transform="translate(-355.98 -36.08)"/><path class="cls-1" d="M662.54,37.12L663,49.89l-16.39-.15L646.81,57l13.07-.66,0.44,12.26L647,68.94l0.74,15L633,85l-0.3-46.67Z" transform="translate(-355.98 -36.08)"/><path class="cls-2" d="M632,86l-0.31-48.7,31.8-1.26L664,50.9l-16.4-.15,0.16,5.18,13.06-.66,0.52,14.28L648,69.91l0.74,14.95Zm1.7-46.78L634,83.89,646.65,83l-0.74-15,13.38-.37-0.37-10.23L645.84,58l-0.28-9.3,16.39,0.15-0.37-10.73Z" transform="translate(-355.98 -36.08)"/><path class="cls-1" d="M704.33,74.78l-1.55,8.34L681,84l-13-1.48,1.11-43.79,31.75-.52ZM690.3,71l-1-19.71-8.2-.44-0.37,20.53Z" transform="translate(-355.98 -36.08)"/><path class="cls-2" d="M681,85l-14-1.59,1.15-45.66,33.63-.55,3.57,37.61-1.72,9.27ZM669,81.64L681,83l20.91-.85,1.38-7.42L700,39.24l-29.87.49Zm10.73-9.22,0.41-22.62,10.13,0.55L691.35,72Zm2.37-20.51L681.8,70.34l7.46-.29-0.87-17.81Z" transform="translate(-355.98 -36.08)"/><path class="cls-1" d="M745.24,38.38l2,39.8-5.69,5-28.65,1-2.73-2.51,0.22-42.09,13-.22L724,70.13l8.93-1.18-0.52-30.42Z" transform="translate(-355.98 -36.08)"/><path class="cls-2" d="M712.52,85.17l-3.36-3.09,0.23-43.51,15-.26L724.95,69l6.94-.92-0.52-30.53,14.82-.17,2.07,41.24-6.32,5.58Zm-1.35-4,2.1,1.93,27.88-.93,5.06-4.46-1.92-38.36-10.88.13,0.52,30.31L723,71.26,722.4,40.35l-11,.19Z" transform="translate(-355.98 -36.08)"/><path class="cls-1" d="M790.2,83.34l-13.59.29-0.29-13.88L766.5,57.42l-0.3,25.92-13.07-.22-0.29-43.79,12.85-1.25,10.85,14.84L776.47,38.3l14-.15Z" transform="translate(-355.98 -36.08)"/><path class="cls-2" d="M775.64,84.66l-0.31-14.54-7.86-9.87-0.28,24.11-15.05-.26-0.31-45.68L766.16,37l9.37,12.81-0.06-12.53,16-.17L791.2,84.32ZM765.53,54.6L777.31,69.4l0.28,13.22,11.61-.25,0.28-43.2-12,.13L777.56,56,765.22,39.13l-11.37,1.11,0.28,41.9,11.09,0.19Z" transform="translate(-355.98 -36.08)"/><path class="cls-1" d="M834.73,47.09l-0.89,26.29-8.49,10.26-26.58-.37-1-44.52,26.66-.89Zm-14,23.33L820.7,51.3l-8.64-.74L812,71.45Z" transform="translate(-355.98 -36.08)"/><path class="cls-2" d="M825.81,84.64l-28-.39-1-46.48,28-.93,10.91,9.81-0.91,27.09Zm-26.07-2.36,25.14,0.35,8-9.63,0.86-25.48-9.62-8.65-25.27.84ZM811,72.58l0.08-23.11,10.63,0.91,0.08,20.93Zm2.07-20.93L813,70.33l6.78-.8L819.7,52.21Z" transform="translate(-355.98 -36.08)"/></svg>