<svg id="Layer_1" data-name="Layer 1" xmlns="http://www.w3.org/2000/svg" viewBox="0 0 1206 133.11"><defs><style>.cls-1{fill:none;stroke:#c4843f;stroke-miterlimit:10;stroke-width:18px;opacity:0.34;}.cls-2{fill:#15aaaa;}.cls-3{fill:#0e7771;}</style></defs><title>objects_found_3</title><path class="cls-1" d="M1137,1078.55h354.17a7.74,7.74,0,0,0,7.74-7.74v-99c0-4.62,6.67-8.4,14.83-8.4h448.5c8.16,0,14.83,3.78,14.83,8.4v99a7.74,7.74,0,0,0,7.74,7.74H2343" transform="translate(-1137 -954.44)"/><path class="cls-2" d="M1569.14,1039.72l-1.27,6.85-17.88.73-10.67-1.21,0.91-35.94,26.06-.42Zm-11.51-3.09-0.79-16.18-6.73-.36-0.3,16.85Z" transform="translate(-1137 -954.44)"/><path class="cls-3" d="M1550,1048.12l-11.48-1.3,0.95-37.47,27.6-.45,2.93,30.87-1.41,7.6Zm-9.8-2.77,9.86,1.12,17.16-.7,1.13-6.09-2.77-29.13-24.51.4Zm8.81-7.57,0.33-18.57,8.32,0.45,0.86,17.75Zm1.94-16.83-0.27,15.13,6.12-.24-0.71-14.61Z" transform="translate(-1137 -954.44)"/><path class="cls-2" d="M1605.14,1035.6v0.48l-7,11.51-23.45-.06-0.67-36.72,0.3-.36,14.67-.91,8.61,0.12,5.33,9v0.36l-4.54,8.79Zm-14.85-17.15-5.39-.06v6.48l5.51-.18Zm1.27,13.94h-6.12v7.27l6.24-.36Z" transform="translate(-1137 -954.44)"/><path class="cls-3" d="M1598.57,1048.42l-24.72-.06-0.69-37.83,0.73-.87,15-.93,9.13,0.13,5.68,9.62v0.79l-4.38,8.47,6.62,7.57v1Zm-23.11-1.7,22.19,0.06,6.65-10.89-6.93-7.92,4.69-9.07-5-8.41-8.14-.11-14.13.88Zm9.16-6.19v-9h7.75l0.15,8.5Zm1.64-7.32v5.58l4.59-.27-0.09-5.31h-4.49Zm-2.19-7.49v-8.16l7,0.08,0.15,7.85Zm1.64-6.5V1024l3.86-.13-0.09-4.64Z" transform="translate(-1137 -954.44)"/><path class="cls-2" d="M1628.77,1009.78l1.39,31.27-8.36,7-16-1.21,1-10.67,11.39,0.73-0.06-16.6-10.24.42-0.18-10.6Z" transform="translate(-1137 -954.44)"/><path class="cls-3" d="M1622.07,1048.92l-17.16-1.3,1.12-12.29,11.31,0.72-0.05-14.87-10.23.42-0.21-12.27,22.71-.39,1.45,32.47Zm-15.38-2.81,14.83,1.12,7.8-6.55-1.34-30.07-19.47.34,0.15,8.94,10.25-.42,0.07,18.33-11.47-.73Z" transform="translate(-1137 -954.44)"/><path class="cls-2" d="M1658.89,1047.35l-23.88-.18,0.24-35.63,2.3-1.58,20.6-.42-0.24,9.63-11.51.06-0.12,4.85,8.67-.06-0.12,8.91-9.09-.12,0.06,5.09,13.45-.36Z" transform="translate(-1137 -954.44)"/><path class="cls-3" d="M1659.68,1048.18l-25.49-.19,0.25-36.88,2.86-2,21.71-.45-0.28,11.29-11.51.06-0.08,3.21,8.66-.06-0.14,10.57-9.07-.12,0,3.42,13.49-.37Zm-23.84-1.82,22.26,0.17,0.3-8.15-13.41.36-0.08-6.76,9.11,0.12,0.1-7.25-8.68.06,0.16-6.49,11.51-.06,0.2-8-19.5.4-1.75,1.2Z" transform="translate(-1137 -954.44)"/><path class="cls-2" d="M1687.73,1036.51v11.27l-23.82-1.21-0.18-35.63,22.18-1.7,0.42,10.36-11,.18-0.55,17.45Z" transform="translate(-1137 -954.44)"/><path class="cls-3" d="M1688.56,1048.64l-25.45-1.3-0.19-37.17,23.79-1.82,0.49,12.05-11,.18-0.49,15.78,12.88-.73v13Zm-23.82-2.86,22.18,1.13v-9.54l-12.94.73,0.6-19.13,10.91-.18-0.36-8.67-20.57,1.57Z" transform="translate(-1137 -954.44)"/><path class="cls-2" d="M1718.52,1020.14l-9.57-.12,1.27,26.85-11.88.55,0.12-27.15-8.73.3-0.12-10.6,28.42-.61Z" transform="translate(-1137 -954.44)"/><path class="cls-3" d="M1697.51,1048.27l0.12-27.16-8.71.3-0.14-12.26,30-.64,0.56,12.46-9.57-.12,1.27,26.8Zm1.77-28.86-0.12,27.14,10.19-.47-1.27-26.89,9.58,0.12-0.41-9.12-26.81.57,0.1,9Z" transform="translate(-1137 -954.44)"/><path class="cls-2" d="M1744.82,1009.42l-0.06,10.12-10.91.06-0.42,2.61,12.36,5.64-1,18.24-23,2.18-1.09-12.12,13.21,0.73,0.18-3.45-12.85-7.45,1.09-15.09,9.76-1Z" transform="translate(-1137 -954.44)"/><path class="cls-3" d="M1721.11,1049.16l-1.25-13.89,13.34,0.73,0.11-2.13-12.86-7.46,1.18-16.29,10.44-1.1,13.58-.46-0.07,11.79-11,.06-0.21,1.3,12.3,5.61-1,19.51Zm0.56-12.14,0.93,10.35,21.44-2,0.9-17-12.42-5.66,0.64-3.91,10.79-.06,0.05-8.46-11.81.4-9,1-1,13.89L1735,1033l-0.25,4.78Z" transform="translate(-1137 -954.44)"/><path class="cls-2" d="M1790.09,1008.81l0.36,10.48-13.45-.12,0.18,5.94,10.73-.55,0.36,10.06-11,.3,0.61,12.3-12.06.85-0.24-38.3Z" transform="translate(-1137 -954.44)"/><path class="cls-3" d="M1765,1049l-0.25-40,26.1-1,0.42,12.17-13.46-.12,0.13,4.25,10.72-.55,0.42,11.72-11,.3,0.6,12.27Zm1.4-38.39,0.23,36.63,10.38-.73-0.61-12.34,11-.3-0.3-8.4-10.73.55-0.23-7.63,13.45,0.12-0.31-8.8Z" transform="translate(-1137 -954.44)"/><path class="cls-2" d="M1824.39,1039.72l-1.27,6.85-17.88.73-10.67-1.21,0.91-35.94,26.06-.42Zm-11.51-3.09-0.79-16.18-6.73-.36-0.3,16.85Z" transform="translate(-1137 -954.44)"/><path class="cls-3" d="M1805.21,1048.12l-11.48-1.3,0.95-37.47,27.6-.45,2.93,30.87-1.41,7.6Zm-9.8-2.77,9.86,1.12,17.16-.7,1.13-6.09-2.77-29.13-24.51.4Zm8.81-7.57,0.33-18.57,8.32,0.45,0.86,17.75Zm1.94-16.83-0.27,15.13,6.12-.24-0.71-14.61Z" transform="translate(-1137 -954.44)"/><path class="cls-2" d="M1858,1009.84l1.64,32.66-4.67,4.12-23.51.79-2.24-2.06,0.18-34.54,10.67-.18,0.48,25.27,7.33-1-0.42-25Z" transform="translate(-1137 -954.44)"/><path class="cls-3" d="M1831.11,1048.25l-2.76-2.53,0.19-35.71,12.29-.21,0.48,25.17,5.7-.75-0.43-25.06,12.16-.14,1.7,33.85-5.18,4.58ZM1830,1045l1.73,1.59,22.88-.77,4.15-3.66-1.58-31.48-8.93.1,0.42,24.87-9,1.19-0.49-25.37-9,.15Z" transform="translate(-1137 -954.44)"/><path class="cls-2" d="M1894.86,1046.75l-11.15.24-0.24-11.39-8.06-10.12-0.24,21.27-10.73-.18-0.24-35.94,10.54-1,8.91,12.18-0.06-12,11.51-.12Z" transform="translate(-1137 -954.44)"/><path class="cls-3" d="M1882.91,1047.83l-0.25-11.94-6.45-8.1-0.23,19.79-12.35-.21-0.25-37.49,11.76-1.15,7.69,10.51-0.05-10.28,13.17-.14-0.25,38.72Zm-8.29-24.67,9.67,12.14,0.23,10.85,9.53-.21,0.23-35.45-9.86.1,0.07,13.72-10.13-13.85-9.33.91,0.23,34.39,9.1,0.15Z" transform="translate(-1137 -954.44)"/><path class="cls-2" d="M1931.4,1017l-0.73,21.57-7,8.42-21.82-.3-0.79-36.54,21.88-.73ZM1920,1036.14l-0.06-15.7-7.09-.61-0.06,17.15Z" transform="translate(-1137 -954.44)"/><path class="cls-3" d="M1924.09,1047.82l-23-.32-0.82-38.14,23-.77,9,8.05-0.75,22.24Zm-21.39-1.94,20.63,0.29,6.54-7.91,0.7-20.91-7.89-7.1-20.74.69Zm9.22-8,0.07-19,8.73,0.75,0.07,17.18Zm1.7-17.18-0.05,15.33,5.56-.65-0.05-14.21Z" transform="translate(-1137 -954.44)"/></svg>