<svg id="Layer_13" data-name="Layer 13" xmlns="http://www.w3.org/2000/svg" viewBox="0 0 604.17 124.4"><defs><style>.cls-1{fill:#7c4724;stroke:#773f19;stroke-miterlimit:10;stroke-width:7px;}</style></defs><title>text_box</title><path class="cls-1" d="M235.54,731.06c10.41-5.33,19.17-10.87,22.41-17.83,2.81-6-.41-11.28-6.71-16.54-2.94-2.46-6.28-5-7.39-7.62-2.16-5.15,8.55-9.68,19.17-11.64,9.9-1.82,20.63-2.1,30.95-2.06,15.53,0.06,31,1.06,46.55,1.63,2.92,0.11,5.87.16,8.8,0.17,13.86,0,124.33.32,138.12-.05a471.46,471.46,0,0,0,49.41-4.21,58.09,58.09,0,0,1,13.27-.14c12.47,1.44,24.75,3,37.73,3.77,20.37,1.23,131.88.57,152.2,0.49,12.16,0,24.31-.72,36.45-1.16,2.73-.1,5.39-0.54,8.12-0.61a86.39,86.39,0,0,1,35,6c6.1,2.42,7.83,8.79,3.78,11.69-4.8,3.45-9.13,7.17-11.37,11-3.47,5.95,1.13,11.64,7.62,17,3.35,2.76,7.68,5.32,11.4,8,2.46,1.78,2.19,3.54-.93,5.2-7.32,3.89-13.91,8-17.23,12.73-2.6,3.72-3.39,7.57.55,11.26,3,2.83,6.5,5.58,9.69,8.38,6.36,5.58,1.16,13.77-11.53,17.15a116.35,116.35,0,0,1-40.35,3.17c-6.45-.56-13.36-0.17-20-0.46-22.87-1-137-1.91-159.92-.87-13.28.61-26.46,2-39.34,3.48a110,110,0,0,1-28.48-.06c-9.17-1.25-18.84-1.92-28.36-2.72-17.74-1.49-132.28-.91-150.16-0.71-14,.15-27.91.76-41.85,1.19-5.81.18-11.62,0.68-17.4,0.61-13.45-.17-25.9-1.77-34.25-6.3-7.9-4.28-11.54-9.93-4-15.38,6-4.31,11.6-8.69,11.83-13.83,0.17-3.76-3.21-7.16-7.46-10.31-4.72-3.49-10.83-6.67-16.33-10v-0.4Z" transform="translate(-232.04 -668.95)"/></svg>