<svg id="textbubble" xmlns="http://www.w3.org/2000/svg" viewBox="0 0 342.48 133.66"><defs><style>.cls-1{fill:#fff;stroke:#000;stroke-miterlimit:10;stroke-width:5px;}</style></defs><title>textbubble</title><path class="cls-1" d="M4870.51,1127.12H4581.74a24.43,24.43,0,0,0-24.36,24.36v40.29a24.43,24.43,0,0,0,24.36,24.36h244.92c0.08,0.22.15,0.42,0.23,0.65l0.48,1.71,0.25,0.92,0.18,0.94,0.38,2,0.23,2.08a37.86,37.86,0,0,1,.18,4.42,20,20,0,0,1-.11,2.28l-0.2,2.32c-0.2,1.53-.52,3-0.8,4.55s-0.8,2.89-1.2,4.3l-0.31,1-0.38,1-0.74,1.86a33,33,0,0,1-1.43,3.28l-1.29,2.48-1.18,2.2,2.37-.73,2.78-.89a36.22,36.22,0,0,0,3.56-1.41l2-.89,1.09-.48,1.07-.57c1.44-.8,3-1.63,4.63-2.61s3.18-2.12,4.8-3.33l2.37-1.94c0.79-.67,1.63-1.33,2.36-2.08a61.87,61.87,0,0,0,4.44-4.6c0.7-.81,1.4-1.62,2.08-2.45l1.89-2.54,0.92-1.27,0.84-1.29,1.61-2.56c0.95-1.73,1.92-3.38,2.64-5,0.38-.81.75-1.59,1.08-2.35l0.37-.94h6.6a24.43,24.43,0,0,0,24.36-24.36v-40.29A24.43,24.43,0,0,0,4870.51,1127.12Z" transform="translate(-4554.88 -1124.62)"/></svg>